<svg data-name="Layer 1" xmlns="http://www.w3.org/2000/svg" viewBox="0 0 120 24">
  <defs>
    <style>
      .b6abdfed {
        fill: #ec0c21;
      }
    </style>
  </defs>
  <g>
    <polygon class="b6abdfed" points="44.164 0 44.063 0 43.962 0 43.962 6 43.962 12 43.962 18 43.962 24 44.063 24 44.164 24 44.265 24 44.366 24 44.366 18 44.366 12 44.366 6 44.366 0 44.265 0 44.164 0"/>
    <g>
      <path class="b6abdfed" d="M9.956,8.527a3.251,3.251,0,0,0,.476.532,4.4,4.4,0,0,0,.636.474,5.555,5.555,0,0,0,.778.392,6.785,6.785,0,0,0,.9.3,8.015,8.015,0,0,0,1.007.191,8.839,8.839,0,0,0,1.091.067,8.888,8.888,0,0,0,1.094-.067,8.091,8.091,0,0,0,1.012-.191,6.984,6.984,0,0,0,.911-.3,6,6,0,0,0,.791-.392,4.33,4.33,0,0,0,.647-.471,3.133,3.133,0,0,0,.484-.532,2.3,2.3,0,0,0,.3-.577,1.863,1.863,0,0,0,.005-1.219,2.279,2.279,0,0,0-.3-.577,3.125,3.125,0,0,0-.481-.527,4.328,4.328,0,0,0-.646-.464,5.764,5.764,0,0,0-.787-.391,7.152,7.152,0,0,0-.912-.3,8.3,8.3,0,0,0-1.014-.187,9.087,9.087,0,0,0-1.094-.066,8.988,8.988,0,0,0-1.088.066,8.187,8.187,0,0,0-1.007.187,7,7,0,0,0-.905.3,5.626,5.626,0,0,0-.78.391,4.374,4.374,0,0,0-.64.468,3.134,3.134,0,0,0-.476.527,2.26,2.26,0,0,0-.3.574,1.891,1.891,0,0,0-.107.61,1.838,1.838,0,0,0,.1.606A2.306,2.306,0,0,0,9.956,8.527Z" transform="translate(0 0)"/>
      <path class="b6abdfed" d="M12.435,15a3.249,3.249,0,0,0-.48-.528A4.464,4.464,0,0,0,11.314,14a5.764,5.764,0,0,0-.787-.391,7.138,7.138,0,0,0-.911-.3,8.285,8.285,0,0,0-1.011-.187,9.042,9.042,0,0,0-2.181,0,7.84,7.84,0,0,0-1.008.186,7.112,7.112,0,0,0-.9.294A5.643,5.643,0,0,0,3.727,14a4.2,4.2,0,0,0-.64.468A2.973,2.973,0,0,0,2.612,15a2.26,2.26,0,0,0-.3.574,1.9,1.9,0,0,0,0,1.221,2.308,2.308,0,0,0,.3.579,3.08,3.08,0,0,0,.475.532,4.244,4.244,0,0,0,.64.475,5.555,5.555,0,0,0,.778.392,6.785,6.785,0,0,0,.9.3,8.015,8.015,0,0,0,1.007.191,8.966,8.966,0,0,0,2.184,0,7.932,7.932,0,0,0,1.013-.192,6.984,6.984,0,0,0,.911-.3,5.865,5.865,0,0,0,.791-.4,4.322,4.322,0,0,0,.646-.471,3.2,3.2,0,0,0,.482-.532,2.37,2.37,0,0,0,.3-.578,1.849,1.849,0,0,0,.109-.607,1.922,1.922,0,0,0-.114-.6A2.338,2.338,0,0,0,12.435,15Z" transform="translate(0 0)"/>
      <path class="b6abdfed" d="M29.113,14.113A5.573,5.573,0,0,0,27.5,12.436a8.239,8.239,0,0,0-2.4-1.127,10.5,10.5,0,0,0-2.943-.411c-.171,0-.339,0-.506.011s-.331.02-.493.035-.324.034-.484.057-.318.048-.475.077a6.22,6.22,0,0,0,.915-.784,5.076,5.076,0,0,0,.691-.9,4.24,4.24,0,0,0,.437-1A3.817,3.817,0,0,0,22.4,7.327a3.974,3.974,0,0,0-.592-2.064A5.6,5.6,0,0,0,20.19,3.586a8.239,8.239,0,0,0-2.4-1.127,10.724,10.724,0,0,0-5.881,0A8.161,8.161,0,0,0,9.523,3.586a5.565,5.565,0,0,0-1.6,1.677,4,4,0,0,0-.587,2.064A3.928,3.928,0,0,0,7.482,8.4a4.254,4.254,0,0,0,.43,1,4.936,4.936,0,0,0,.682.9,6.11,6.11,0,0,0,.906.778c-.159-.029-.32-.055-.483-.077s-.327-.042-.493-.057-.332-.027-.5-.035-.338-.011-.509-.011a10.418,10.418,0,0,0-2.937.411,8.154,8.154,0,0,0-2.387,1.127,5.565,5.565,0,0,0-1.6,1.677A3.991,3.991,0,0,0,0,16.177a4.046,4.046,0,0,0,.584,2.071,5.608,5.608,0,0,0,1.6,1.693,8.115,8.115,0,0,0,2.38,1.141A10.236,10.236,0,0,0,7.5,21.5a10.448,10.448,0,0,0,2.534-.3,8.819,8.819,0,0,0,2.17-.849,6.639,6.639,0,0,0,1.654-1.285,4.672,4.672,0,0,0,.989-1.619,4.681,4.681,0,0,0,.972,1.619,6.513,6.513,0,0,0,1.632,1.285,8.611,8.611,0,0,0,2.15.849,10.571,10.571,0,0,0,5.47-.113,8.271,8.271,0,0,0,2.406-1.141,5.69,5.69,0,0,0,1.623-1.7,4,4,0,0,0,.595-2.071A3.945,3.945,0,0,0,29.113,14.113ZM9.128,8.755a2.947,2.947,0,0,1-.312-.7,2.558,2.558,0,0,1,.061-1.644,3.056,3.056,0,0,1,.416-.747,4,4,0,0,1,.526-.577,5.063,5.063,0,0,1,.5-.4,6.143,6.143,0,0,1,.963-.556,7.286,7.286,0,0,1,1.1-.405,8.633,8.633,0,0,1,1.2-.248,9.836,9.836,0,0,1,2.554,0,8.633,8.633,0,0,1,1.2.248,7.4,7.4,0,0,1,1.1.405,6.22,6.22,0,0,1,.971.556,5.006,5.006,0,0,1,.507.4,4.089,4.089,0,0,1,.53.578,3.16,3.16,0,0,1,.419.748,2.559,2.559,0,0,1,.174.911,2.794,2.794,0,0,1-.51,1.551,4.558,4.558,0,0,1-1.353,1.26,7.253,7.253,0,0,1-1.974.847,9.114,9.114,0,0,1-2.375.31,9.3,9.3,0,0,1-1.269-.085,8.357,8.357,0,0,1-1.194-.25,7.355,7.355,0,0,1-1.092-.408,6.272,6.272,0,0,1-.962-.558A4.825,4.825,0,0,1,9.627,9.4,3.785,3.785,0,0,1,9.128,8.755Zm4.077,8.976a4.533,4.533,0,0,1-1.351,1.262,7.28,7.28,0,0,1-1.973.848,9.292,9.292,0,0,1-3.644.228,8.5,8.5,0,0,1-1.194-.251,7.327,7.327,0,0,1-1.092-.411,6.252,6.252,0,0,1-.962-.563,4.88,4.88,0,0,1-.689-.587,3.724,3.724,0,0,1-.5-.652,2.991,2.991,0,0,1-.313-.7,2.537,2.537,0,0,1-.107-.729,2.6,2.6,0,0,1,.172-.915,3.139,3.139,0,0,1,.415-.747,4.039,4.039,0,0,1,.524-.577,5.063,5.063,0,0,1,.5-.4,6.425,6.425,0,0,1,.967-.553,7.691,7.691,0,0,1,1.1-.4,8.435,8.435,0,0,1,1.2-.249,9.648,9.648,0,0,1,2.552,0,8.532,8.532,0,0,1,1.205.249,7.691,7.691,0,0,1,1.1.4,6.465,6.465,0,0,1,.971.553,5.151,5.151,0,0,1,.507.4,4.142,4.142,0,0,1,.53.577,3.134,3.134,0,0,1,.419.747,2.581,2.581,0,0,1,.174.915A2.772,2.772,0,0,1,13.205,17.731Zm2.4-4.141a4.6,4.6,0,0,0-.43.641,4.128,4.128,0,0,0-.3.689,4.173,4.173,0,0,0-.311-.684,4.942,4.942,0,0,0-.434-.638,5.829,5.829,0,0,0-.546-.587,6.59,6.59,0,0,0-.649-.531c.152.029.306.054.462.076s.314.039.472.054.319.024.481.031.324.01.488.01.336,0,.5-.011.331-.02.494-.035.326-.034.486-.057.319-.048.476-.077a6.4,6.4,0,0,0-.643.531,5.566,5.566,0,0,0-.551.588Zm12.24,4.141a4.529,4.529,0,0,1-1.35,1.262,7.331,7.331,0,0,1-1.974.848,9.287,9.287,0,0,1-3.643.228,8.3,8.3,0,0,1-1.2-.251,7.327,7.327,0,0,1-1.092-.411,6.252,6.252,0,0,1-.962-.563,4.922,4.922,0,0,1-.686-.587,3.846,3.846,0,0,1-.506-.652,2.991,2.991,0,0,1-.313-.7,2.609,2.609,0,0,1-.107-.729,2.543,2.543,0,0,1,.169-.913,3.08,3.08,0,0,1,.415-.746,4.169,4.169,0,0,1,.527-.576,5.65,5.65,0,0,1,.5-.4,6.346,6.346,0,0,1,.964-.553,7.529,7.529,0,0,1,1.1-.4,8.464,8.464,0,0,1,1.2-.249,9.663,9.663,0,0,1,2.554,0,8.636,8.636,0,0,1,1.2.249,7.753,7.753,0,0,1,1.105.4,6.555,6.555,0,0,1,.975.553,4.765,4.765,0,0,1,.507.4,4.082,4.082,0,0,1,.529.578,3.118,3.118,0,0,1,.417.748,2.558,2.558,0,0,1,.169.911,2.779,2.779,0,0,1-.5,1.553Z" transform="translate(0 0)"/>
      <path class="b6abdfed" d="M27.106,15a3.237,3.237,0,0,0-.478-.528A4.464,4.464,0,0,0,25.987,14a5.764,5.764,0,0,0-.787-.391,7.152,7.152,0,0,0-.912-.3,8.3,8.3,0,0,0-1.014-.187,9.083,9.083,0,0,0-2.186,0,7.84,7.84,0,0,0-1.008.186,7.112,7.112,0,0,0-.9.294,5.709,5.709,0,0,0-.79.395,4.312,4.312,0,0,0-.639.468,2.973,2.973,0,0,0-.475.527,2.26,2.26,0,0,0-.3.574,1.9,1.9,0,0,0,0,1.221,2.308,2.308,0,0,0,.3.579,3.08,3.08,0,0,0,.475.532,4.287,4.287,0,0,0,.639.475,5.677,5.677,0,0,0,.779.392,6.785,6.785,0,0,0,.9.3,8.015,8.015,0,0,0,1.007.191,8.966,8.966,0,0,0,2.184,0,7.917,7.917,0,0,0,1.012-.192,7,7,0,0,0,.912-.3,5.853,5.853,0,0,0,.79-.4,4.33,4.33,0,0,0,.647-.471,3.115,3.115,0,0,0,.481-.532,2.3,2.3,0,0,0,.3-.578,1.871,1.871,0,0,0,0-1.207A2.263,2.263,0,0,0,27.106,15Z" transform="translate(0 0)"/>
      <path class="b6abdfed" d="M32.327,16.822a1.493,1.493,0,0,0-.485-.323,1.6,1.6,0,0,0-.608-.117,1.628,1.628,0,0,0-.617.115,1.44,1.44,0,0,0-.808.8,1.623,1.623,0,0,0-.115.616,1.6,1.6,0,0,0,.117.608,1.477,1.477,0,0,0,.81.81,1.58,1.58,0,0,0,.6.118,1.611,1.611,0,0,0,.613-.118,1.439,1.439,0,0,0,.488-.323,1.475,1.475,0,0,0,.323-.487,1.651,1.651,0,0,0,0-1.217A1.466,1.466,0,0,0,32.327,16.822Zm.126,1.607a1.363,1.363,0,0,1-.284.431,1.321,1.321,0,0,1-.944.4,1.294,1.294,0,0,1-.517-.107,1.354,1.354,0,0,1-.815-1.24,1.405,1.405,0,0,1,.1-.536,1.283,1.283,0,0,1,.71-.712,1.433,1.433,0,0,1,.537-.107,1.393,1.393,0,0,1,.257.027,1.367,1.367,0,0,1,.25.078,1.319,1.319,0,0,1,.229.121,1.2,1.2,0,0,1,.362.36,1.4,1.4,0,0,1,.2.49,1.434,1.434,0,0,1,.026.269A1.378,1.378,0,0,1,32.453,18.429Z" transform="translate(0 0)"/>
      <path class="b6abdfed" d="M31.7,18.371l-.094-.207-.093-.207a.62.62,0,0,0,.147-.07.489.489,0,0,0,.113-.1.438.438,0,0,0,.072-.126.422.422,0,0,0,.026-.145.45.45,0,0,0-.088-.267.474.474,0,0,0-.1-.1.484.484,0,0,0-.135-.066c-.027-.008-.053-.014-.08-.02a.707.707,0,0,0-.084-.012c-.03,0-.063,0-.1-.006h-.617v1.74H30.9V18h.383l.087.2.087.2.088.2.087.2h.258l-.093-.207Zm-.307-.563h0a.626.626,0,0,1-.106.012H30.9v-.59h.332a.512.512,0,0,1,.1.006.481.481,0,0,1,.076.012.4.4,0,0,1,.058.02.229.229,0,0,1,.131.09.328.328,0,0,1,.033.074.371.371,0,0,1,.01.088.323.323,0,0,1-.007.069.28.28,0,0,1-.023.063.226.226,0,0,1-.086.1.25.25,0,0,1-.056.035A.321.321,0,0,1,31.393,17.808Z" transform="translate(0 0)"/>
    </g>
    <g>
      <path class="b6abdfed" d="M60.86,2.266a8.96,8.96,0,0,1-.754,1.013,10.744,10.744,0,0,1-.979,1,12.224,12.224,0,0,1-1.187.941,12.782,12.782,0,0,1-1.383.838l.186.541.185.542.178.542.186.541a11.218,11.218,0,0,0,.958-.6c.3-.208.574-.421.831-.639s.493-.438.712-.66.421-.445.606-.666V21.693h2.538V2.266H60.86Z" transform="translate(0 0)"/>
      <path class="b6abdfed" d="M119.278,8.842a9.419,9.419,0,0,0-.518-.906h0c-.054-.084-.109-.168-.165-.251s-.114-.166-.174-.248-.12-.163-.182-.243-.127-.16-.193-.239c-.031-.037-.07-.068-.1-.1a9.164,9.164,0,0,0-.688-.72c-.03-.028-.063-.053-.093-.08-.126-.118-.259-.228-.392-.341q-.322-.272-.663-.522c-.075-.055-.142-.12-.218-.172-.02-.014-.043-.025-.064-.039a13,13,0,0,0-1.2-.734l-.158-.086c-.093-.049-.183-.1-.277-.15a16.573,16.573,0,0,0-3.879-1.368q-.478-.1-.972-.182t-1-.132c-.338-.036-.678-.062-1.025-.081s-.695-.028-1.047-.028c-.315,0-.626.008-.935.022s-.615.037-.918.066c-.056.005-.11.014-.165.019-.075.008-.15.016-.224.026l-.038,0c-.158.019-.317.034-.473.056-.3.042-.589.09-.878.144a17.149,17.149,0,0,0-3.408,1.008,14.042,14.042,0,0,0-2.863,1.586A10.826,10.826,0,0,0,94.2,7.215c-.1.121-.167.259-.256.385s-.176.258-.26.389c-.147.236-.285.475-.408.724-.115.231-.22.466-.313.706-.031.081-.077.154-.105.235-.028-.081-.074-.155-.1-.235q-.141-.36-.313-.7a8.329,8.329,0,0,0-.41-.725c-.083-.132-.168-.262-.258-.389s-.16-.264-.257-.385a10.826,10.826,0,0,0-2.176-2.067,14.042,14.042,0,0,0-2.863-1.586,17.149,17.149,0,0,0-3.408-1.008q-.432-.081-.878-.144c-.156-.022-.315-.037-.473-.056l-.038,0c-.074-.01-.149-.018-.224-.026-.055,0-.109-.014-.165-.019-.3-.029-.609-.051-.918-.066s-.62-.022-.935-.022c-.352,0-.7.009-1.047.028s-.687.045-1.025.081-.671.08-1,.132-.653.113-.972.182A16.573,16.573,0,0,0,71.51,4.007c-.094.047-.183.1-.276.15l-.159.086a13,13,0,0,0-1.2.734c-.021.014-.043.025-.064.039-.076.052-.143.117-.217.171-.227.168-.449.342-.665.524-.132.112-.264.221-.391.339-.03.028-.063.053-.093.081a9.55,9.55,0,0,0-.689.72c-.032.037-.069.067-.1.1-.066.079-.131.159-.193.239s-.122.161-.182.243-.118.165-.174.248-.111.167-.165.251h.006a9.221,9.221,0,0,0-.519.906,7.271,7.271,0,0,0-.722,3.138,7.164,7.164,0,0,0,.135,1.355,7.456,7.456,0,0,0,.383,1.3,8.268,8.268,0,0,0,.614,1.227c.037.06.085.111.122.17h-.007c.085.13.185.248.275.373.144.2.274.414.434.6s.362.372.544.557c.075.076.142.16.22.234.018.017.038.031.056.048.219.207.451.4.686.586.109.088.218.176.33.26s.208.176.32.253.243.144.362.221c.064.042.124.091.19.132.125.079.257.144.384.219.192.112.382.227.579.33a14.833,14.833,0,0,0,1.374.648,17.135,17.135,0,0,0,2.678.827c.319.068.643.129.972.181s.663.1,1,.132.677.063,1.024.081.694.028,1.047.028c.314,0,.626-.009.935-.023.276-.013.55-.034.819-.058l.1-.006a1.13,1.13,0,0,0,.117-.01c.094-.009.187-.019.279-.031l.276-.038.038-.006c.062-.008.125-.013.187-.022.3-.045.589-.091.878-.145A17.147,17.147,0,0,0,86.467,20.4a14.123,14.123,0,0,0,2.863-1.581,10.881,10.881,0,0,0,2.176-2.067c.065-.082.112-.177.174-.262a8.274,8.274,0,0,0,.518-.778c.053-.093.1-.186.153-.281a8.23,8.23,0,0,0,.5-1.127,8.354,8.354,0,0,0,.5,1.127c.05.1.1.188.154.281a8.2,8.2,0,0,0,.517.778c.062.085.109.18.174.262a10.881,10.881,0,0,0,2.176,2.067A14.123,14.123,0,0,0,99.239,20.4a17.147,17.147,0,0,0,3.408,1.007c.289.054.582.1.878.145.062.009.125.014.187.022l.038.006.276.038c.092.012.185.022.279.031a1.13,1.13,0,0,0,.117.01l.1.006c.27.024.544.045.819.058.309.014.621.023.935.023.353,0,.7-.01,1.047-.028s.687-.045,1.024-.081.671-.08,1-.132.653-.113.972-.181A17.135,17.135,0,0,0,113,20.5a14.833,14.833,0,0,0,1.374-.648c.2-.1.387-.219.58-.331.127-.074.259-.14.383-.218.066-.041.126-.09.191-.132.118-.077.244-.141.361-.221s.211-.171.32-.253.221-.172.33-.259c.235-.189.468-.38.687-.588.018-.016.038-.03.055-.047.077-.073.144-.157.219-.233.182-.185.375-.36.545-.558s.29-.4.434-.6c.09-.125.191-.243.275-.373h-.007c.037-.059.086-.11.122-.17a8.268,8.268,0,0,0,.614-1.227,7.456,7.456,0,0,0,.383-1.3A7.164,7.164,0,0,0,120,11.98,7.271,7.271,0,0,0,119.278,8.842Zm-28.669,3.6c0,.041,0,.082-.011.122a4.609,4.609,0,0,1-.124.587c-.014.049-.022.1-.037.149-.05.162-.113.321-.177.478-.027.062-.05.127-.078.188-.056.121-.122.238-.186.354s-.145.26-.23.383c-.02.031-.042.06-.062.091a8.267,8.267,0,0,1-2.41,2.247,13.155,13.155,0,0,1-3.576,1.549,16.409,16.409,0,0,1-4.24.569,16.711,16.711,0,0,1-2.68-.224,15.376,15.376,0,0,1-2.509-.637,12.842,12.842,0,0,1-2.191-.99,9.917,9.917,0,0,1-1.779-1.288H70.3c-.11-.1-.224-.2-.329-.312a6.9,6.9,0,0,1-.91-1.18A5.439,5.439,0,0,1,68.5,13.27a4.606,4.606,0,0,1,.112-2.958,5.631,5.631,0,0,1,.747-1.352,7.575,7.575,0,0,1,.928-1.024h.009c.066-.061.133-.118.2-.176.151-.132.309-.257.468-.38l.054-.041c.075-.057.147-.108.216-.157A11.542,11.542,0,0,1,72.993,6.17a13.554,13.554,0,0,1,2-.74,15.508,15.508,0,0,1,2.186-.454A17.8,17.8,0,0,1,79.5,4.822a17.473,17.473,0,0,1,2.273.153,15.662,15.662,0,0,1,2.187.453,13.554,13.554,0,0,1,2,.74,11.5,11.5,0,0,1,1.762,1.015,9.407,9.407,0,0,1,.917.736,7.465,7.465,0,0,1,.956,1.046,5.677,5.677,0,0,1,.744,1.347A4.559,4.559,0,0,1,90.609,12.445Zm26.6.825a5.439,5.439,0,0,1-.562,1.261,6.8,6.8,0,0,1-.91,1.18c-.1.109-.219.209-.329.312h-.021a9.882,9.882,0,0,1-1.779,1.288,12.842,12.842,0,0,1-2.191.99,15.376,15.376,0,0,1-2.509.637,16.709,16.709,0,0,1-2.679.224,16.417,16.417,0,0,1-4.241-.569,13.168,13.168,0,0,1-3.576-1.549A8.28,8.28,0,0,1,96,14.8c-.02-.031-.042-.06-.062-.091-.085-.123-.156-.253-.23-.383s-.13-.233-.186-.354c-.028-.061-.051-.125-.077-.188a5.071,5.071,0,0,1-.177-.478c-.015-.049-.024-.1-.037-.149a4.591,4.591,0,0,1-.125-.588c-.006-.04-.006-.08-.011-.12a4.563,4.563,0,0,1,.273-2.134,5.677,5.677,0,0,1,.744-1.347,7.465,7.465,0,0,1,.956-1.046,9.407,9.407,0,0,1,.917-.736,11.5,11.5,0,0,1,1.762-1.015,13.554,13.554,0,0,1,2-.74,15.662,15.662,0,0,1,2.187-.453,17.489,17.489,0,0,1,2.274-.153,17.8,17.8,0,0,1,2.317.154,15.508,15.508,0,0,1,2.186.454,13.554,13.554,0,0,1,2,.74,11.5,11.5,0,0,1,1.763,1.012c.069.049.141.1.216.157l.055.042c.159.122.316.247.467.379.067.058.133.115.2.176h.01a7.5,7.5,0,0,1,.927,1.024,5.631,5.631,0,0,1,.747,1.352A4.6,4.6,0,0,1,117.209,13.27Z" transform="translate(0 0)"/>
    </g>
  </g>
</svg>
